<svg width="24" height="24" viewBox="0 0 24 24" fill="none" xmlns="http://www.w3.org/2000/svg">
<mask id="mask0_1_202" style="mask-type:alpha" maskUnits="userSpaceOnUse" x="0" y="0" width="24" height="24">
<rect width="24" height="24" fill="#212121"/>
</mask>
<g mask="url(#mask0_1_202)">
<path d="M9 16.25C8.65 16.25 8.35433 16.129 8.113 15.887C7.871 15.6457 7.75 15.35 7.75 15C7.75 14.65 7.871 14.3543 8.113 14.113C8.35433 13.871 8.65 13.75 9 13.75C9.35 13.75 9.64567 13.871 9.887 14.113C10.129 14.3543 10.25 14.65 10.25 15C10.25 15.35 10.129 15.6457 9.887 15.887C9.64567 16.129 9.35 16.25 9 16.25ZM15 16.25C14.65 16.25 14.3543 16.129 14.113 15.887C13.871 15.6457 13.75 15.35 13.75 15C13.75 14.65 13.871 14.3543 14.113 14.113C14.3543 13.871 14.65 13.75 15 13.75C15.35 13.75 15.6457 13.871 15.887 14.113C16.129 14.3543 16.25 14.65 16.25 15C16.25 15.35 16.129 15.6457 15.887 15.887C15.6457 16.129 15.35 16.25 15 16.25ZM12 22C14.2333 22 16.125 21.225 17.675 19.675C19.225 18.125 20 16.2333 20 14C20 13.6 19.975 13.2123 19.925 12.837C19.875 12.4623 19.7833 12.1 19.65 11.75C19.3 11.8333 18.95 11.896 18.6 11.938C18.25 11.9793 17.8833 12 17.5 12C15.9833 12 14.55 11.675 13.2 11.025C11.85 10.375 10.7 9.46667 9.75 8.3C9.21667 9.6 8.45433 10.7293 7.463 11.688C6.471 12.646 5.31667 13.3667 4 13.85V14C4 16.2333 4.775 18.125 6.325 19.675C7.875 21.225 9.76667 22 12 22ZM12 24C10.6167 24 9.31667 23.7373 8.1 23.212C6.88333 22.6873 5.825 21.975 4.925 21.075C4.025 20.175 3.31267 19.1167 2.788 17.9C2.26267 16.6833 2 15.3833 2 14C2 13.5167 2.03333 13.0373 2.1 12.562C2.16667 12.0873 2.26667 11.6333 2.4 11.2C1.68333 10.7667 1.10433 10.1793 0.663 9.438C0.221 8.696 0 7.875 0 6.975C0 5.59167 0.483333 4.41667 1.45 3.45C2.41667 2.48333 3.59167 2 4.975 2C5.85833 2 6.671 2.21233 7.413 2.637C8.15433 3.06233 8.75 3.65 9.2 4.4C9.63333 4.26667 10.0873 4.16667 10.562 4.1C11.0373 4.03333 11.5167 4 12 4C13.3833 4 14.6833 4.26233 15.9 4.787C17.1167 5.31233 18.175 6.025 19.075 6.925C19.975 7.825 20.6873 8.88333 21.212 10.1C21.7373 11.3167 22 12.6167 22 14C22 15.3833 21.7373 16.6833 21.212 17.9C20.6873 19.1167 19.975 20.175 19.075 21.075C18.175 21.975 17.1167 22.6873 15.9 23.212C14.6833 23.7373 13.3833 24 12 24Z" fill="#212121" fill-opacity="0.5"/>
</g>
</svg>
