<svg width="30" height="32" viewBox="0 0 30 32" fill="none" xmlns="http://www.w3.org/2000/svg">
<g filter="url(#filter0_d_1_202)">
<mask id="mask0_1_202" style="mask-type:alpha" maskUnits="userSpaceOnUse" x="4" y="0" width="24" height="24">
<rect x="4" width="24" height="24" fill="#212121"/>
</mask>
<g mask="url(#mask0_1_202)">
<path d="M13 16.25C12.65 16.25 12.3543 16.129 12.113 15.887C11.871 15.6457 11.75 15.35 11.75 15C11.75 14.65 11.871 14.3543 12.113 14.113C12.3543 13.871 12.65 13.75 13 13.75C13.35 13.75 13.6457 13.871 13.887 14.113C14.129 14.3543 14.25 14.65 14.25 15C14.25 15.35 14.129 15.6457 13.887 15.887C13.6457 16.129 13.35 16.25 13 16.25ZM19 16.25C18.65 16.25 18.3543 16.129 18.113 15.887C17.871 15.6457 17.75 15.35 17.75 15C17.75 14.65 17.871 14.3543 18.113 14.113C18.3543 13.871 18.65 13.75 19 13.75C19.35 13.75 19.6457 13.871 19.887 14.113C20.129 14.3543 20.25 14.65 20.25 15C20.25 15.35 20.129 15.6457 19.887 15.887C19.6457 16.129 19.35 16.25 19 16.25ZM16 22C18.2333 22 20.125 21.225 21.675 19.675C23.225 18.125 24 16.2333 24 14C24 13.6 23.975 13.2123 23.925 12.837C23.875 12.4623 23.7833 12.1 23.65 11.75C23.3 11.8333 22.95 11.896 22.6 11.938C22.25 11.9793 21.8833 12 21.5 12C19.9833 12 18.55 11.675 17.2 11.025C15.85 10.375 14.7 9.46667 13.75 8.3C13.2167 9.6 12.4543 10.7293 11.463 11.688C10.471 12.646 9.31667 13.3667 8 13.85V14C8 16.2333 8.775 18.125 10.325 19.675C11.875 21.225 13.7667 22 16 22ZM16 24C14.6167 24 13.3167 23.7373 12.1 23.212C10.8833 22.6873 9.825 21.975 8.925 21.075C8.025 20.175 7.31267 19.1167 6.788 17.9C6.26267 16.6833 6 15.3833 6 14C6 13.5167 6.03333 13.0373 6.1 12.562C6.16667 12.0873 6.26667 11.6333 6.4 11.2C5.68333 10.7667 5.10433 10.1793 4.663 9.438C4.221 8.696 4 7.875 4 6.975C4 5.59167 4.48333 4.41667 5.45 3.45C6.41667 2.48333 7.59167 2 8.975 2C9.85833 2 10.671 2.21233 11.413 2.637C12.1543 3.06233 12.75 3.65 13.2 4.4C13.6333 4.26667 14.0873 4.16667 14.562 4.1C15.0373 4.03333 15.5167 4 16 4C17.3833 4 18.6833 4.26233 19.9 4.787C21.1167 5.31233 22.175 6.025 23.075 6.925C23.975 7.825 24.6873 8.88333 25.212 10.1C25.7373 11.3167 26 12.6167 26 14C26 15.3833 25.7373 16.6833 25.212 17.9C24.6873 19.1167 23.975 20.175 23.075 21.075C22.175 21.975 21.1167 22.6873 19.9 23.212C18.6833 23.7373 17.3833 24 16 24Z" fill="#212121"/>
</g>
</g>
<defs>
<filter id="filter0_d_1_202" x="0" y="2" width="30" height="30" filterUnits="userSpaceOnUse" color-interpolation-filters="sRGB">
<feFlood flood-opacity="0" result="BackgroundImageFix"/>
<feColorMatrix in="SourceAlpha" type="matrix" values="0 0 0 0 0 0 0 0 0 0 0 0 0 0 0 0 0 0 127 0" result="hardAlpha"/>
<feOffset dy="4"/>
<feGaussianBlur stdDeviation="2"/>
<feComposite in2="hardAlpha" operator="out"/>
<feColorMatrix type="matrix" values="0 0 0 0 0 0 0 0 0 0 0 0 0 0 0 0 0 0 0.25 0"/>
<feBlend mode="normal" in2="BackgroundImageFix" result="effect1_dropShadow_1_202"/>
<feBlend mode="normal" in="SourceGraphic" in2="effect1_dropShadow_1_202" result="shape"/>
</filter>
</defs>
</svg>
